<svg xmlns="http://www.w3.org/2000/svg"   width="40" height="40">
  <rect width="100%" height="100%" fill="white" />

  <line x1="4" y1="4" x2="20" y2="4" stroke="black" stroke-width="2" stroke-linecap="round" />
  <line x1="4" y1="20" x2="20" y2="20" stroke="black" stroke-width="2" stroke-linecap="round" />
  <line x1="4" y1="36" x2="20" y2="36" stroke="black" stroke-width="2" stroke-linecap="round" />
  <line x1="4" y1="4" x2="4" y2="36" stroke="black" stroke-width="2" stroke-linecap="round"/>
  <line x1="20" y1="4" x2="20" y2="36" stroke="black" stroke-width="2" stroke-linecap="round"/>
  <line x1="20" y1="4" x2="20" y2="36" stroke="black" stroke-width="2" stroke-linecap="round"/>

  <line x1="4" y1="4" x2="12" y2="20" stroke="black" stroke-width="2" stroke-linecap="round"/>
  <line x1="4" y1="36" x2="12" y2="20" stroke="black" stroke-width="2" stroke-linecap="round"/>
  <line x1="20" y1="4" x2="12" y2="20" stroke="black" stroke-width="2" stroke-linecap="round"/>
  <line x1="20" y1="36" x2="12" y2="20" stroke="black" stroke-width="2" stroke-linecap="round"/>
  <line x1="7" y1="10" x2="17" y2="10" stroke="black" stroke-width="2" stroke-linecap="round"/>
  <line x1="7" y1="30" x2="17" y2="30" stroke="black" stroke-width="2" stroke-linecap="round"/>
  
  <line x1="7" y1="7" x2="17" y2="7" stroke="black" stroke-width="2" stroke-linecap="round"/>
  <line x1="7" y1="12" x2="17" y2="12" stroke="black" stroke-width="2" stroke-linecap="round"/>
  <line x1="7" y1="17" x2="17" y2="17" stroke="black" stroke-width="2" stroke-linecap="round"/>
  <line x1="7" y1="7" x2="7" y2="17" stroke="black" stroke-width="2" stroke-linecap="round"/>
  <line x1="17" y1="7" x2="17" y2="17" stroke="black" stroke-width="2" stroke-linecap="round"/>

  <line x1="7" y1="23" x2="17" y2="23" stroke="black" stroke-width="2" stroke-linecap="round"/>
  <line x1="7" y1="28" x2="17" y2="28" stroke="black" stroke-width="2" stroke-linecap="round"/>
  <line x1="7" y1="33" x2="17" y2="33" stroke="black" stroke-width="2" stroke-linecap="round"/>
  <line x1="7" y1="23" x2="7" y2="33" stroke="black" stroke-width="2" stroke-linecap="round"/>
  <line x1="17" y1="23" x2="17" y2="33" stroke="black" stroke-width="2" stroke-linecap="round"/>

  <line x1="20" y1="4" x2="28" y2="20" stroke="black" stroke-width="2" stroke-linecap="round"/>
  <line x1="20" y1="36" x2="28" y2="20" stroke="black" stroke-width="2" stroke-linecap="round"/>
  <line x1="36" y1="4" x2="28" y2="20" stroke="black" stroke-width="2" stroke-linecap="round"/>
  <line x1="36" y1="36" x2="28" y2="20" stroke="black" stroke-width="2" stroke-linecap="round"/>
  <line x1="23" y1="10" x2="33" y2="10" stroke="black" stroke-width="2" stroke-linecap="round"/>
  <line x1="23" y1="30" x2="33" y2="30" stroke="black" stroke-width="2" stroke-linecap="round"/>
</svg>