<svg xmlns="http://www.w3.org/2000/svg" width="40" height="50">
<rect width="100%" height="100%" fill="white" />
<g stroke="black" stroke-width="2" stroke-linecap="round">
<g transform="" transform-origin="20 9">
<line x1="10" y1="4" x2="20" y2="14" />
</g>
<g transform="translate(0 10)">
<g transform="" transform-origin="12 20">
<line x1="4" y1="4" x2="20" y2="4" />
<line x1="4" y1="36" x2="20" y2="36" />
<line x1="4" y1="4" x2="4" y2="36" />
<line x1="20" y1="4" x2="20" y2="36" />
</g>
<g transform="" transform-origin="12 12">
<line x1="20" y1="4" x2="12" y2="20" />
<line x1="7.2" y1="10.4" x2="16.8" y2="10.4" />
</g>
<g transform="" transform-origin="12 28">
<line x1="7" y1="23" x2="17" y2="23" />
<line x1="7" y1="28" x2="17" y2="28" />
<line x1="7" y1="23" x2="7" y2="33" />
</g>
<g transform="" transform-origin="30 11">
<line x1="24" y1="4" x2="30" y2="18" />
</g>
<g transform="" transform-origin="30 29">
<line x1="24" y1="22" x2="36" y2="22" />
<line x1="24" y1="29" x2="36" y2="29" />
<line x1="24" y1="22" x2="24" y2="36" />
</g>
</g>
</g>
</svg>