<svg xmlns="http://www.w3.org/2000/svg" width="400" height="80">
<rect width="100%" height="100%" fill="white" />
<g stroke="black" stroke-width="2" stroke-linecap="round">
<g transform="translate(0 0)">
<g transform="" transform-origin="20 11">
<line x1="4" y1="4" x2="4" y2="18" />
<line x1="4" y1="18" x2="36" y2="18" />
</g>
<g transform="" transform-origin="20 29">
<circle r="7" cx="20" cy="29" fill="none" />
</g>

</g><g transform="translate(40 0)">
<g transform="" transform-origin="11 20">
<line x1="11" y1="4" x2="4" y2="36" />
<line x1="11" y1="4" x2="18" y2="36" />
<line x1="4" y1="36" x2="18" y2="36" />
</g>
<g transform="" transform-origin="29 11">
<line x1="22" y1="4" x2="36" y2="4" />
<line x1="22" y1="18" x2="36" y2="18" />
<line x1="29" y1="4" x2="29" y2="18" />
</g>
<g transform="" transform-origin="29 29">
<line x1="22" y1="29" x2="36" y2="29" />
<line x1="29" y1="22" x2="29" y2="36" />
</g>

</g><g transform="translate(80 0)">

</g><g transform="translate(120 0)">
<g transform="" transform-origin="11 20">
<line x1="4" y1="20" x2="18" y2="20" />
<line x1="11" y1="4" x2="11" y2="36" />
</g>
<g transform="" transform-origin="29 11">
<line x1="29" y1="4" x2="22" y2="18" />
<line x1="29" y1="4" x2="36" y2="18" />
<line x1="22" y1="18" x2="36" y2="18" />
</g>
<g transform="" transform-origin="29 29">
<line x1="22" y1="22" x2="22" y2="36" />
<line x1="22" y1="36" x2="36" y2="36" />
</g>

</g><g transform="translate(160 0)">
<g transform="" transform-origin="11 20">
<line x1="11" y1="4" x2="11" y2="36" />
</g>
<g transform="" transform-origin="29 11">
<line x1="22" y1="4" x2="22" y2="18" />
<line x1="22" y1="18" x2="36" y2="18" />
</g>
<g transform="" transform-origin="29 29">
<circle r="7" cx="29" cy="29" fill="none" />
</g>

</g><g transform="translate(200 0)">

</g><g transform="translate(240 0)">
<g transform="" transform-origin="11 20">
<line x1="11" y1="4" x2="4" y2="36" />
<line x1="11" y1="4" x2="18" y2="36" />
<line x1="4" y1="36" x2="18" y2="36" />
</g>
<g transform="" transform-origin="29 11">
<line x1="29" y1="4" x2="29" y2="18" />
</g>
<g transform="" transform-origin="29 29">
<circle r="7" cx="29" cy="29" fill="none" />
</g>

</g><g transform="translate(280 0)">
<g transform="" transform-origin="11 20">
<line x1="4" y1="4" x2="4" y2="36" />
<line x1="4" y1="36" x2="18" y2="36" />
</g>
<g transform="" transform-origin="29 11">
<line x1="29" y1="4" x2="22" y2="18" />
<line x1="29" y1="4" x2="36" y2="18" />
<line x1="22" y1="18" x2="36" y2="18" />
</g>
<g transform="" transform-origin="29 29">
<line x1="22" y1="22" x2="36" y2="22" />
<line x1="22" y1="36" x2="36" y2="36" />
<line x1="29" y1="22" x2="29" y2="36" />
</g>

</g><g transform="translate(320 0)">
<g transform="" transform-origin="11 20">
<line x1="11" y1="4" x2="11" y2="36" />
</g>
<g transform="" transform-origin="29 11">
<circle r="7" cx="29" cy="11" fill="none" />
</g>
<g transform="" transform-origin="29 29">
<circle r="7" cx="29" cy="29" fill="none" />
</g>

</g><g transform="translate(360 0)">
<g transform="" transform-origin="11 20">
<circle r="7" cx="11" cy="20" fill="none" />
</g>
<g transform="" transform-origin="29 11">
<circle r="7" cx="29" cy="11" fill="none" />
</g>
<g transform="" transform-origin="29 29">
<circle r="7" cx="29" cy="29" fill="none" />
</g>

</g><g transform="translate(0 40)">
<g transform="" transform-origin="20 20">
<line x1="20" y1="4" x2="20" y2="36" />
</g>

</g><g transform="translate(40 40)">
<g transform="" transform-origin="11 20">
<circle r="7" cx="11" cy="20" fill="none" />
</g>
<g transform="" transform-origin="29 11">
<circle r="7" cx="29" cy="11" fill="none" />
</g>
<g transform="" transform-origin="29 29">
<circle r="7" cx="29" cy="29" fill="none" />
</g>

</g><g transform="translate(80 40)">
<g transform="" transform-origin="11 20">
<circle r="7" cx="11" cy="20" fill="none" />
</g>
<g transform="" transform-origin="29 11">
<circle r="7" cx="29" cy="11" fill="none" />
</g>
<g transform="" transform-origin="29 29">
<circle r="7" cx="29" cy="29" fill="none" />
</g>

</g><g transform="translate(120 40)">
<g transform="" transform-origin="11 20">
<circle r="7" cx="11" cy="20" fill="none" />
</g>
<g transform="" transform-origin="29 11">
<circle r="7" cx="29" cy="11" fill="none" />
</g>
<g transform="" transform-origin="29 29">
<circle r="7" cx="29" cy="29" fill="none" />
</g>

</g>
</g>
</svg>