<svg xmlns="http://www.w3.org/2000/svg" width="440" height="120">
<rect width="100%" height="100%" fill="white" />
<g stroke="black" stroke-width="2" stroke-linecap="round">
<g transform="translate(0 0)">
<g transform="" transform-origin="20 20">
<line x1="4" y1="4" x2="36" y2="4" />
<line x1="4" y1="4" x2="4" y2="36" />
<line x1="36" y1="4" x2="36" y2="36" />
</g>
<g transform="" transform-origin="20 12">
<line x1="12" y1="7" x2="20" y2="17" />
<line x1="28" y1="7" x2="20" y2="17" />
</g>
<g transform="" transform-origin="20 28">
<line x1="28" y1="23" x2="28" y2="33" />
<line x1="12" y1="33" x2="28" y2="33" />
<line x1="12" y1="28" x2="28" y2="28" />
</g>

</g><g transform="translate(40 0)">
<g transform="" transform-origin="20 20">
<line x1="4" y1="4" x2="36" y2="4" />
<line x1="4" y1="36" x2="36" y2="36" />
<line x1="4" y1="4" x2="4" y2="36" />
<line x1="36" y1="4" x2="36" y2="36" />
</g>
<g transform="" transform-origin="20 12">
<line x1="12" y1="7" x2="12" y2="17" />
<line x1="12" y1="17" x2="28" y2="17" />
</g>

</g><g transform="translate(80 0)">
<g transform="" transform-origin="12 20">
<line x1="4" y1="20" x2="20" y2="20" />
<line x1="4" y1="4" x2="4" y2="36" />
</g>
<g transform="" transform-origin="12 12">
<line x1="7" y1="7" x2="7" y2="17" />
<line x1="7" y1="17" x2="17" y2="17" />
</g>
<g transform="" transform-origin="12 28">
<line x1="7" y1="28" x2="17" y2="28" />
<line x1="7" y1="23" x2="17" y2="23" />
<line x1="7" y1="23" x2="7" y2="33" />
<line x1="17" y1="23" x2="17" y2="33" />
</g>
<g transform="" transform-origin="30 11">
<line x1="36" y1="4" x2="36" y2="18" />
<line x1="24" y1="11" x2="36" y2="11" />
</g>
<g transform="" transform-origin="30 29">
<line x1="24" y1="29" x2="36" y2="29" />
<line x1="24" y1="22" x2="24" y2="36" />
<line x1="36" y1="22" x2="36" y2="36" />
</g>

</g><g transform="translate(120 0)">
<g transform="" transform-origin="20 20">
<line x1="4" y1="4" x2="36" y2="4" />
<line x1="36" y1="4" x2="36" y2="36" />
</g>
<g transform="" transform-origin="20 12">
<line x1="12" y1="7" x2="20" y2="17" />
<line x1="28" y1="7" x2="20" y2="17" />
</g>

</g><g transform="translate(160 0)">
<g transform="" transform-origin="12 20">
<line x1="4" y1="20" x2="20" y2="20" />
<line x1="4" y1="4" x2="4" y2="36" />
</g>
<g transform="" transform-origin="12 12">
<line x1="7" y1="7" x2="12" y2="17" />
<line x1="17" y1="7" x2="12" y2="17" />
</g>
<g transform="" transform-origin="12 28">
<line x1="7" y1="23" x2="17" y2="23" />
<line x1="7" y1="28" x2="17" y2="28" />
<line x1="17" y1="23" x2="17" y2="33" />
</g>
<g transform="" transform-origin="30 11">
<line x1="24" y1="4" x2="24" y2="18" />
<line x1="24" y1="18" x2="36" y2="18" />
</g>

</g><g transform="translate(200 0)">
<g transform="" transform-origin="20 11">
<line x1="4" y1="4" x2="4" y2="18" />
<line x1="4" y1="18" x2="36" y2="18" />
<line x1="4" y1="11" x2="36" y2="11" />
</g>
<g transform="" transform-origin="20 29">
<line x1="4" y1="22" x2="36" y2="22" />
<line x1="4" y1="22" x2="4" y2="36" />
<line x1="36" y1="22" x2="36" y2="36" />
</g>

</g><g transform="translate(240 0)">
<g transform="" transform-origin="12 20">
<line x1="4" y1="4" x2="20" y2="4" />
<line x1="20" y1="4" x2="20" y2="36" />
</g>
<g transform="" transform-origin="12 12">
<line x1="17" y1="7" x2="17" y2="17" />
<line x1="7" y1="12" x2="17" y2="12" />
</g>
<g transform="" transform-origin="12 28">
<line x1="7" y1="28" x2="17" y2="28" />
<line x1="7" y1="23" x2="7" y2="33" />
</g>
<g transform="" transform-origin="30 11">
<line x1="36" y1="4" x2="36" y2="18" />
<line x1="24" y1="18" x2="36" y2="18" />
<line x1="24" y1="11" x2="36" y2="11" />
</g>

</g><g transform="translate(280 0)">
<g transform="" transform-origin="20 20">
<line x1="4" y1="4" x2="4" y2="36" />
<line x1="4" y1="36" x2="36" y2="36" />
<line x1="4" y1="20" x2="36" y2="20" />
</g>

</g><g transform="translate(320 0)">
<g transform="" transform-origin="12 20">
<line x1="4" y1="20" x2="20" y2="20" />
<line x1="20" y1="4" x2="20" y2="36" />
</g>
<g transform="" transform-origin="12 12">
<line x1="7" y1="7" x2="12" y2="17" />
<line x1="17" y1="7" x2="12" y2="17" />
</g>
<g transform="" transform-origin="12 28">
<line x1="7" y1="23" x2="17" y2="23" />
<line x1="7" y1="23" x2="7" y2="33" />
<line x1="17" y1="23" x2="17" y2="33" />
</g>
<g transform="" transform-origin="30 11">
<line x1="24" y1="4" x2="24" y2="18" />
<line x1="24" y1="18" x2="36" y2="18" />
<line x1="24" y1="11" x2="36" y2="11" />
</g>
<g transform="" transform-origin="30 29">
<line x1="24" y1="29" x2="36" y2="29" />
<line x1="24" y1="22" x2="24" y2="36" />
<line x1="36" y1="22" x2="36" y2="36" />
</g>

</g><g transform="translate(360 0)">
<g transform="" transform-origin="20 20">
<line x1="4" y1="4" x2="36" y2="4" />
<line x1="4" y1="36" x2="36" y2="36" />
<line x1="36" y1="4" x2="36" y2="36" />
</g>
<g transform="" transform-origin="20 12">
<line x1="28" y1="7" x2="28" y2="17" />
<line x1="12" y1="12" x2="28" y2="12" />
</g>
<g transform="" transform-origin="20 28">
<line x1="28" y1="23" x2="28" y2="33" />
<line x1="12" y1="33" x2="28" y2="33" />
<line x1="12" y1="28" x2="28" y2="28" />
</g>

</g><g transform="translate(0 40)">

<line x1="4" y1="6" x2="36" y2="4" />
<line x1="4" y1="36" x2="36" y2="36" />
<line x1="6" y1="6" x2="4" y2="36" />
<line x1="36" y1="4" x2="34" y2="32" />
<line x1="28" y1="6" x2="16" y2="19" />
<line x1="16" y1="19" x2="27" y2="21" />
<line x1="27" y1="21" x2="14" y2="36" />
</g><g transform="translate(40 40)">
<g transform="" transform-origin="12 20">
<line x1="4" y1="20" x2="20" y2="20" />
<line x1="4" y1="4" x2="20" y2="4" />
<line x1="4" y1="4" x2="4" y2="36" />
<line x1="20" y1="4" x2="20" y2="36" />
</g>
<g transform="" transform-origin="12 12">
<line x1="17" y1="7" x2="17" y2="17" />
<line x1="7" y1="12" x2="17" y2="12" />
</g>
<g transform="" transform-origin="12 28">
<line x1="7" y1="23" x2="17" y2="23" />
<line x1="7" y1="33" x2="17" y2="33" />
<line x1="7" y1="23" x2="7" y2="33" />
<line x1="17" y1="23" x2="17" y2="33" />
</g>
<g transform="" transform-origin="30 11">
<line x1="24" y1="4" x2="36" y2="4" />
<line x1="24" y1="11" x2="36" y2="11" />
<line x1="24" y1="4" x2="24" y2="18" />
</g>
<g transform="" transform-origin="30 29">
<line x1="24" y1="22" x2="24" y2="36" />
<line x1="24" y1="36" x2="36" y2="36" />
<line x1="24" y1="29" x2="36" y2="29" />
</g>

</g><g transform="translate(80 40)">
<g transform="" transform-origin="20 20">
<line x1="4" y1="4" x2="20" y2="36" />
<line x1="36" y1="4" x2="20" y2="36" />
</g>

</g><g transform="translate(120 40)">
<g transform="" transform-origin="12 20">
<line x1="4" y1="4" x2="20" y2="4" />
<line x1="4" y1="36" x2="20" y2="36" />
<line x1="4" y1="4" x2="4" y2="36" />
<line x1="20" y1="4" x2="20" y2="36" />
</g>
<g transform="" transform-origin="12 12">
<line x1="17" y1="7" x2="17" y2="17" />
<line x1="7" y1="17" x2="17" y2="17" />
<line x1="7" y1="12" x2="17" y2="12" />
</g>
<g transform="" transform-origin="12 28">
<line x1="7" y1="23" x2="7" y2="33" />
<line x1="7" y1="33" x2="17" y2="33" />
</g>
<g transform="" transform-origin="30 11">
<line x1="24" y1="11" x2="36" y2="11" />
<line x1="24" y1="4" x2="24" y2="18" />
</g>
<g transform="" transform-origin="30 29">
<line x1="24" y1="22" x2="30" y2="36" />
<line x1="36" y1="22" x2="30" y2="36" />
</g>

</g><g transform="translate(160 40)">
<g transform="" transform-origin="11 20">
<line x1="4" y1="4" x2="11" y2="36" />
<line x1="18" y1="4" x2="11" y2="36" />
</g>
<g transform="" transform-origin="29 11">
<line x1="22" y1="4" x2="22" y2="18" />
<line x1="22" y1="18" x2="36" y2="18" />
<line x1="22" y1="11" x2="36" y2="11" />
</g>
<g transform="" transform-origin="29 29">
<line x1="22" y1="29" x2="36" y2="29" />
<line x1="36" y1="22" x2="36" y2="36" />
</g>

</g><g transform="translate(200 40)">
<g transform="" transform-origin="12 20">
<line x1="4" y1="4" x2="20" y2="4" />
<line x1="4" y1="20" x2="20" y2="20" />
<line x1="4" y1="4" x2="4" y2="36" />
</g>
<g transform="" transform-origin="12 12">
<line x1="17" y1="7" x2="17" y2="17" />
<line x1="7" y1="17" x2="17" y2="17" />
<line x1="7" y1="12" x2="17" y2="12" />
</g>
<g transform="" transform-origin="12 28">
<line x1="7" y1="23" x2="17" y2="23" />
<line x1="7" y1="33" x2="17" y2="33" />
<line x1="7" y1="23" x2="7" y2="33" />
<line x1="17" y1="23" x2="17" y2="33" />
</g>
<g transform="" transform-origin="30 11">
<line x1="24" y1="4" x2="36" y2="4" />
<line x1="24" y1="18" x2="36" y2="18" />
<line x1="36" y1="4" x2="36" y2="18" />
</g>
<g transform="" transform-origin="30 29">
<line x1="36" y1="22" x2="36" y2="36" />
<line x1="24" y1="29" x2="36" y2="29" />
</g>

</g><g transform="translate(240 40)">
<g transform="" transform-origin="20 20">
<line x1="4" y1="20" x2="36" y2="20" />
<line x1="4" y1="4" x2="4" y2="36" />
<line x1="36" y1="4" x2="36" y2="36" />
</g>
<g transform="" transform-origin="20 12">
<line x1="12" y1="7" x2="12" y2="17" />
<line x1="12" y1="17" x2="28" y2="17" />
</g>
<g transform="" transform-origin="20 28">
<line x1="12" y1="23" x2="28" y2="23" />
<line x1="12" y1="28" x2="28" y2="28" />
<line x1="28" y1="23" x2="28" y2="33" />
</g>

</g><g transform="translate(280 40)">
<g transform="" transform-origin="11 20">
<line x1="4" y1="4" x2="4" y2="36" />
<line x1="4" y1="36" x2="18" y2="36" />
</g>
<g transform="" transform-origin="29 11">
<line x1="36" y1="4" x2="36" y2="18" />
<line x1="22" y1="18" x2="36" y2="18" />
<line x1="22" y1="11" x2="36" y2="11" />
</g>
<g transform="" transform-origin="29 29">
<line x1="22" y1="22" x2="36" y2="22" />
<line x1="22" y1="22" x2="22" y2="36" />
<line x1="36" y1="22" x2="36" y2="36" />
</g>

</g><g transform="translate(320 40)">
<g transform="" transform-origin="20 20">
<line x1="4" y1="4" x2="36" y2="4" />
<line x1="36" y1="4" x2="36" y2="36" />
</g>
<g transform="" transform-origin="20 12">
<line x1="12" y1="7" x2="20" y2="17" />
<line x1="28" y1="7" x2="20" y2="17" />
</g>

</g><g transform="translate(360 40)">
<g transform="" transform-origin="12 20">
<line x1="4" y1="4" x2="20" y2="4" />
<line x1="4" y1="36" x2="20" y2="36" />
<line x1="4" y1="4" x2="4" y2="36" />
</g>
<g transform="" transform-origin="12 12">
<line x1="7" y1="7" x2="7" y2="17" />
<line x1="7" y1="17" x2="17" y2="17" />
<line x1="7" y1="12" x2="17" y2="12" />
</g>
<g transform="" transform-origin="12 28">
<line x1="7" y1="23" x2="17" y2="23" />
<line x1="7" y1="33" x2="17" y2="33" />
<line x1="7" y1="23" x2="7" y2="33" />
<line x1="17" y1="23" x2="17" y2="33" />
</g>
<g transform="" transform-origin="30 11">
<line x1="36" y1="4" x2="36" y2="18" />
<line x1="24" y1="11" x2="36" y2="11" />
</g>

</g><g transform="translate(0 80)">

<line x1="4" y1="6" x2="36" y2="4" />
<line x1="4" y1="36" x2="36" y2="36" />
<line x1="6" y1="6" x2="4" y2="36" />
<line x1="36" y1="4" x2="34" y2="32" />
<line x1="28" y1="6" x2="16" y2="19" />
<line x1="16" y1="19" x2="27" y2="21" />
<line x1="27" y1="21" x2="14" y2="36" />
</g><g transform="translate(40 80)">
<g transform="" transform-origin="12 20">
<line x1="4" y1="4" x2="20" y2="4" />
<line x1="4" y1="20" x2="20" y2="20" />
<line x1="4" y1="4" x2="4" y2="36" />
</g>
<g transform="" transform-origin="12 12">
<line x1="17" y1="7" x2="17" y2="17" />
<line x1="7" y1="17" x2="17" y2="17" />
<line x1="7" y1="12" x2="17" y2="12" />
</g>
<g transform="" transform-origin="12 28">
<line x1="7" y1="23" x2="17" y2="23" />
<line x1="7" y1="33" x2="17" y2="33" />
<line x1="7" y1="23" x2="7" y2="33" />
<line x1="17" y1="23" x2="17" y2="33" />
</g>
<g transform="" transform-origin="30 11">
<line x1="24" y1="4" x2="24" y2="18" />
<line x1="24" y1="18" x2="36" y2="18" />
<line x1="24" y1="11" x2="36" y2="11" />
</g>
<g transform="" transform-origin="30 29">
<line x1="24" y1="22" x2="36" y2="22" />
<line x1="24" y1="22" x2="24" y2="36" />
</g>

</g><g transform="translate(80 80)">
<g transform="" transform-origin="20 20">
<line x1="4" y1="20" x2="36" y2="20" />
<line x1="4" y1="4" x2="36" y2="4" />
<line x1="4" y1="4" x2="4" y2="36" />
<line x1="36" y1="4" x2="36" y2="36" />
</g>
<g transform="" transform-origin="20 12">
<line x1="12" y1="7" x2="12" y2="17" />
<line x1="12" y1="17" x2="28" y2="17" />
<line x1="12" y1="12" x2="28" y2="12" />
</g>
<g transform="" transform-origin="20 28">
<line x1="12" y1="23" x2="28" y2="23" />
<line x1="28" y1="23" x2="28" y2="33" />
</g>

</g><g transform="translate(120 80)">
<g transform="" transform-origin="20 20">
<line x1="4" y1="4" x2="36" y2="4" />
<line x1="4" y1="36" x2="36" y2="36" />
<line x1="4" y1="4" x2="4" y2="36" />
<line x1="36" y1="4" x2="36" y2="36" />
</g>
<g transform="" transform-origin="20 12">
<line x1="12" y1="7" x2="12" y2="17" />
<line x1="12" y1="17" x2="28" y2="17" />
</g>

</g><g transform="translate(160 80)">
<g transform="" transform-origin="12 20">
<line x1="4" y1="4" x2="20" y2="4" />
<line x1="4" y1="20" x2="20" y2="20" />
<line x1="4" y1="4" x2="4" y2="36" />
</g>
<g transform="" transform-origin="12 12">
<line x1="7" y1="7" x2="12" y2="17" />
<line x1="17" y1="7" x2="12" y2="17" />
</g>
<g transform="" transform-origin="12 28">
<line x1="7" y1="28" x2="17" y2="28" />
<line x1="7" y1="23" x2="17" y2="23" />
<line x1="7" y1="23" x2="7" y2="33" />
<line x1="17" y1="23" x2="17" y2="33" />
</g>
<g transform="" transform-origin="30 11">
<line x1="24" y1="4" x2="30" y2="18" />
<line x1="36" y1="4" x2="30" y2="18" />
</g>

</g><g transform="translate(200 80)">
<g transform="" transform-origin="20 20">
<line x1="4" y1="4" x2="36" y2="4" />
<line x1="4" y1="36" x2="36" y2="36" />
<line x1="4" y1="4" x2="4" y2="36" />
</g>
<g transform="" transform-origin="20 12">
<line x1="12" y1="7" x2="12" y2="17" />
<line x1="12" y1="17" x2="28" y2="17" />
</g>

</g><g transform="translate(240 80)">
<g transform="" transform-origin="12 20">
<line x1="4" y1="20" x2="20" y2="20" />
<line x1="4" y1="4" x2="4" y2="36" />
<line x1="20" y1="4" x2="20" y2="36" />
</g>
<g transform="" transform-origin="12 12">
<line x1="7" y1="7" x2="7" y2="17" />
<line x1="7" y1="17" x2="17" y2="17" />
<line x1="7" y1="12" x2="17" y2="12" />
</g>
<g transform="" transform-origin="12 28">
<line x1="7" y1="23" x2="17" y2="23" />
<line x1="17" y1="23" x2="17" y2="33" />
</g>
<g transform="" transform-origin="30 11">
<line x1="36" y1="4" x2="36" y2="18" />
<line x1="24" y1="11" x2="36" y2="11" />
</g>

</g><g transform="translate(280 80)">
<g transform="" transform-origin="20 20">
<line x1="4" y1="4" x2="36" y2="4" />
<line x1="4" y1="36" x2="36" y2="36" />
<line x1="4" y1="4" x2="4" y2="36" />
<line x1="36" y1="4" x2="36" y2="36" />
</g>
<g transform="" transform-origin="20 12">
<line x1="28" y1="7" x2="28" y2="17" />
<line x1="12" y1="12" x2="28" y2="12" />
</g>
<g transform="" transform-origin="20 28">
<line x1="12" y1="28" x2="28" y2="28" />
<line x1="12" y1="23" x2="28" y2="23" />
<line x1="12" y1="23" x2="12" y2="33" />
<line x1="28" y1="23" x2="28" y2="33" />
</g>

</g><g transform="translate(320 80)">
<g transform="" transform-origin="12 20">
<line x1="4" y1="4" x2="20" y2="4" />
<line x1="20" y1="4" x2="20" y2="36" />
</g>
<g transform="" transform-origin="12 12">
<line x1="7" y1="7" x2="12" y2="17" />
<line x1="17" y1="7" x2="12" y2="17" />
</g>
<g transform="" transform-origin="12 28">
<line x1="7" y1="23" x2="7" y2="33" />
<line x1="7" y1="33" x2="17" y2="33" />
</g>
<g transform="" transform-origin="30 11">
<line x1="24" y1="11" x2="36" y2="11" />
<line x1="36" y1="4" x2="36" y2="18" />
</g>
<g transform="" transform-origin="30 29">
<line x1="24" y1="22" x2="30" y2="36" />
<line x1="36" y1="22" x2="30" y2="36" />
</g>

</g>
</g>
</svg>