<svg xmlns="http://www.w3.org/2000/svg" width="40" height="40">
<rect width="100%" height="100%" fill="white" />
<g stroke="black" stroke-width="2" stroke-linecap="round">
<g transform="" transform-origin="12 20">
<line x1="4" y1="20" x2="20" y2="20" />
<line x1="4" y1="4" x2="20" y2="4" />
<line x1="4" y1="4" x2="4" y2="36" />
<line x1="20" y1="4" x2="20" y2="36" />
</g>
<g transform="" transform-origin="12 12">
<line x1="17" y1="7" x2="7" y2="17" />
<line x1="7" y1="10" x2="14" y2="10" />
</g>
<g transform="" transform-origin="12 28">
<line x1="7" y1="23" x2="17" y2="23" />
<line x1="7" y1="33" x2="17" y2="33" />
<line x1="7" y1="23" x2="7" y2="33" />
<line x1="17" y1="23" x2="17" y2="33" />
</g>
<g transform="" transform-origin="30 11">
<line x1="24" y1="4" x2="36" y2="4" />
<line x1="24" y1="11" x2="36" y2="11" />
<line x1="36" y1="4" x2="36" y2="18" />
</g>
<g transform="" transform-origin="30 29">
<line x1="24" y1="22" x2="36" y2="36" />
<line x1="27.6" y1="26.2" x2="36" y2="26.2" />
</g>
</g>
</svg>