<svg xmlns="http://www.w3.org/2000/svg" width="320" height="40">
<rect width="100%" height="100%" fill="white" />
<g stroke="black" stroke-width="2" stroke-linecap="round">
<g transform="translate(0 0)">
<g transform="" transform-origin="20 20">
<circle r="16" cx="20" cy="20" fill="none" />
</g>

</g><g transform="translate(40 0)">
<g transform="" transform-origin="20 20">
<line x1="20" y1="4" x2="20" y2="36" />
</g>

</g><g transform="translate(80 0)">
<g transform="" transform-origin="20 20">
<line x1="4" y1="4" x2="4" y2="36" />
<line x1="4" y1="36" x2="36" y2="36" />
</g>

</g><g transform="translate(120 0)">
<g transform="" transform-origin="20 20">
<line x1="20" y1="4" x2="4" y2="36" />
<line x1="20" y1="4" x2="36" y2="36" />
<line x1="4" y1="36" x2="36" y2="36" />
</g>

</g><g transform="translate(160 0)">
<g transform="" transform-origin="20 20">
<line x1="4" y1="20" x2="36" y2="20" />
<line x1="20" y1="4" x2="20" y2="36" />
</g>

</g><g transform="translate(200 0)">
<g transform="" transform-origin="20 20">
<line x1="4" y1="4" x2="36" y2="4" />
<line x1="4" y1="36" x2="36" y2="36" />
<line x1="20" y1="4" x2="20" y2="36" />
</g>

</g><g transform="translate(240 0)">

<line x1="4" y1="6" x2="36" y2="4" />
<line x1="4" y1="36" x2="36" y2="36" />
<line x1="6" y1="6" x2="4" y2="36" />
<line x1="36" y1="4" x2="34" y2="32" />
<line x1="28" y1="6" x2="16" y2="19" />
<line x1="16" y1="19" x2="27" y2="21" />
<line x1="27" y1="21" x2="14" y2="36" />
</g><g transform="translate(280 0)">

<line x1="4" y1="6" x2="36" y2="4" />
<line x1="4" y1="36" x2="36" y2="36" />
<line x1="6" y1="6" x2="4" y2="36" />
<line x1="36" y1="4" x2="34" y2="32" />
<line x1="28" y1="6" x2="16" y2="19" />
<line x1="16" y1="19" x2="27" y2="21" />
<line x1="27" y1="21" x2="14" y2="36" />
</g>
</g>
</svg>